<svg width="22" height="21" viewBox="0 0 22 21" fill="none" xmlns="http://www.w3.org/2000/svg">
<g id="Iconsax/Linear/searchnormal1" opacity="0.5">
<path id="Vector" d="M20.1667 19.25L18.3334 17.5M10.5417 18.375C11.6853 18.375 12.8177 18.16 13.8742 17.7422C14.9308 17.3245 15.8908 16.7122 16.6994 15.9403C17.5081 15.1684 18.1495 14.2521 18.5872 13.2436C19.0248 12.235 19.25 11.1541 19.25 10.0625C19.25 8.97089 19.0248 7.88996 18.5872 6.88144C18.1495 5.87292 17.5081 4.95656 16.6994 4.18467C15.8908 3.41279 14.9308 2.80049 13.8742 2.38275C12.8177 1.96501 11.6853 1.75 10.5417 1.75C8.23211 1.75 6.01711 2.62578 4.38399 4.18467C2.75086 5.74357 1.83337 7.85789 1.83337 10.0625C1.83337 12.2671 2.75086 14.3814 4.38399 15.9403C6.01711 17.4992 8.23211 18.375 10.5417 18.375V18.375Z" stroke="white" stroke-width="1.5" stroke-linecap="round" stroke-linejoin="round"/>
</g>
</svg>
